# xmcd
#
# Track frame offsets:
#	150
#	24122
#	38725
#	55380
#	69472
#	96827
#	110590
#	130902
#	143527
#	159175
#	172530
#	193877
#
# Disc length: 2738 seconds
#
# Revision: 1
# Processed by: cddbd v1.5.2PL0 Copyright (c) Steve Scherf et al.
# Submitted via: audiograbber 1.83.01
#
DISCID=930ab00c
DTITLE=Patriotic Bois - Auf nach Walhalla
DYEAR=1900
DGENRE=
TTITLE0=Auf nach Walhalla
TTITLE1=Aufrecht
TTITLE2=Gute Freunde
TTITLE3=Scheiße
TTITLE4=Fürst des Glaubens
TTITLE5=Buch der Götter
TTITLE6=Gefühle
TTITLE7=Proll
TTITLE8=Harte Zeit
TTITLE9=Punks
TTITLE10=Breit sein
TTITLE11=Einzelgänger
EXTD=
EXTT0=
EXTT1=
EXTT2=
EXTT3=
EXTT4=
EXTT5=
EXTT6=
EXTT7=
EXTT8=
EXTT9=
EXTT10=
EXTT11=
PLAYORDER=
